<mxfile host="app.diagrams.net" modified="2020-11-13T03:29:41.481Z" agent="5.0 (Windows)" etag="2_Ra-XxuatdpLolfuKkl" version="13.9.3" type="github">
  <diagram id="LsOLIy9QFKdU55nzZaIr" name="Page-1">
    <mxGraphModel dx="785" dy="526" grid="1" gridSize="10" guides="1" tooltips="1" connect="1" arrows="1" fold="1" page="1" pageScale="1" pageWidth="827" pageHeight="1169" math="0" shadow="0">
      <root>
        <mxCell id="0" />
        <mxCell id="1" parent="0" />
        <mxCell id="q3a9LYMhe1RpyNR2yRac-1" value="列表项" style="rounded=0;whiteSpace=wrap;html=1;" vertex="1" parent="1">
          <mxGeometry x="260" y="140" width="120" height="30" as="geometry" />
        </mxCell>
        <mxCell id="q3a9LYMhe1RpyNR2yRac-2" value="任务列表" style="rounded=0;whiteSpace=wrap;html=1;" vertex="1" parent="1">
          <mxGeometry x="260" y="110" width="120" height="30" as="geometry" />
        </mxCell>
        <mxCell id="q3a9LYMhe1RpyNR2yRac-3" value="列表项" style="rounded=0;whiteSpace=wrap;html=1;" vertex="1" parent="1">
          <mxGeometry x="260" y="170" width="120" height="30" as="geometry" />
        </mxCell>
        <mxCell id="q3a9LYMhe1RpyNR2yRac-4" value="科目及年级" style="rounded=0;whiteSpace=wrap;html=1;" vertex="1" parent="1">
          <mxGeometry x="460" y="130" width="120" height="30" as="geometry" />
        </mxCell>
        <mxCell id="q3a9LYMhe1RpyNR2yRac-5" value="......." style="rounded=0;whiteSpace=wrap;html=1;" vertex="1" parent="1">
          <mxGeometry x="260" y="290" width="120" height="30" as="geometry" />
        </mxCell>
        <mxCell id="q3a9LYMhe1RpyNR2yRac-6" value="....." style="rounded=0;whiteSpace=wrap;html=1;" vertex="1" parent="1">
          <mxGeometry x="260" y="260" width="120" height="30" as="geometry" />
        </mxCell>
        <mxCell id="q3a9LYMhe1RpyNR2yRac-7" value="......." style="rounded=0;whiteSpace=wrap;html=1;" vertex="1" parent="1">
          <mxGeometry x="260" y="230" width="120" height="30" as="geometry" />
        </mxCell>
        <mxCell id="q3a9LYMhe1RpyNR2yRac-8" value="列表项" style="rounded=0;whiteSpace=wrap;html=1;" vertex="1" parent="1">
          <mxGeometry x="260" y="200" width="120" height="30" as="geometry" />
        </mxCell>
        <mxCell id="q3a9LYMhe1RpyNR2yRac-9" value="任务名" style="rounded=0;whiteSpace=wrap;html=1;" vertex="1" parent="1">
          <mxGeometry x="460" y="160" width="120" height="30" as="geometry" />
        </mxCell>
        <mxCell id="q3a9LYMhe1RpyNR2yRac-10" value="" style="endArrow=classic;startArrow=classic;html=1;exitX=0;exitY=0.5;exitDx=0;exitDy=0;entryX=0;entryY=0.5;entryDx=0;entryDy=0;" edge="1" parent="1" source="q3a9LYMhe1RpyNR2yRac-9" target="q3a9LYMhe1RpyNR2yRac-4">
          <mxGeometry width="50" height="50" relative="1" as="geometry">
            <mxPoint x="350" y="180" as="sourcePoint" />
            <mxPoint x="400" y="130" as="targetPoint" />
            <Array as="points">
              <mxPoint x="380" y="150" />
            </Array>
          </mxGeometry>
        </mxCell>
        <mxCell id="q3a9LYMhe1RpyNR2yRac-13" value="试卷（一份或多份）" style="rounded=0;whiteSpace=wrap;html=1;" vertex="1" parent="1">
          <mxGeometry x="460" y="190" width="120" height="30" as="geometry" />
        </mxCell>
        <mxCell id="q3a9LYMhe1RpyNR2yRac-17" value="" style="endArrow=classic;html=1;entryX=0;entryY=0.5;entryDx=0;entryDy=0;exitX=1;exitY=0.25;exitDx=0;exitDy=0;" edge="1" parent="1" source="q3a9LYMhe1RpyNR2yRac-1" target="q3a9LYMhe1RpyNR2yRac-13">
          <mxGeometry width="50" height="50" relative="1" as="geometry">
            <mxPoint x="410" y="205" as="sourcePoint" />
            <mxPoint x="430" y="250" as="targetPoint" />
          </mxGeometry>
        </mxCell>
      </root>
    </mxGraphModel>
  </diagram>
</mxfile>
